TITLE ""
FILE "P1Q_t_0810-0819.mp3" MP3
  TRACK 01 AUDIO
    TITLE "P1Q_t_0810-0819_01"
    INDEX 01 00:00:00
  TRACK 02 AUDIO
    TITLE "P1Q_t_0810-0819_02"
    INDEX 01 00:01:08
  TRACK 03 AUDIO
    TITLE "P1Q_t_0810-0819_03"
    INDEX 01 00:01:29
  TRACK 04 AUDIO
    TITLE "P1Q_t_0810-0819_04"
    INDEX 01 00:05:06
  TRACK 05 AUDIO
    TITLE "P1Q_t_0810-0819_05"
    INDEX 01 00:05:25
  TRACK 06 AUDIO
    TITLE "P1Q_t_0810-0819_06"
    INDEX 01 00:10:01
  TRACK 07 AUDIO
    TITLE "P1Q_t_0810-0819_07"
    INDEX 01 00:10:48
  TRACK 08 AUDIO
    TITLE "P1Q_t_0810-0819_08"
    INDEX 01 00:11:67
  TRACK 09 AUDIO
    TITLE "P1Q_t_0810-0819_09"
    INDEX 01 00:12:12
  TRACK 10 AUDIO
    TITLE "P1Q_t_0810-0819_10"
    INDEX 01 00:14:50
  TRACK 11 AUDIO
    TITLE "P1Q_t_0810-0819_11"
    INDEX 01 00:14:69
  TRACK 12 AUDIO
    TITLE "P1Q_t_0810-0819_12"
    INDEX 01 00:19:15
  TRACK 13 AUDIO
    TITLE "P1Q_t_0810-0819_13"
    INDEX 01 00:19:63
  TRACK 14 AUDIO
    TITLE "P1Q_t_0810-0819_14"
    INDEX 01 00:21:10
  TRACK 15 AUDIO
    TITLE "P1Q_t_0810-0819_15"
    INDEX 01 00:21:30
  TRACK 16 AUDIO
    TITLE "P1Q_t_0810-0819_16"
    INDEX 01 00:24:25
  TRACK 17 AUDIO
    TITLE "P1Q_t_0810-0819_17"
    INDEX 01 00:24:46
  TRACK 18 AUDIO
    TITLE "P1Q_t_0810-0819_18"
    INDEX 01 00:28:13
  TRACK 19 AUDIO
    TITLE "P1Q_t_0810-0819_19"
    INDEX 01 00:28:60
  TRACK 20 AUDIO
    TITLE "P1Q_t_0810-0819_20"
    INDEX 01 00:30:04
  TRACK 21 AUDIO
    TITLE "P1Q_t_0810-0819_21"
    INDEX 01 00:30:25
  TRACK 22 AUDIO
    TITLE "P1Q_t_0810-0819_22"
    INDEX 01 00:33:23
  TRACK 23 AUDIO
    TITLE "P1Q_t_0810-0819_23"
    INDEX 01 00:33:43
  TRACK 24 AUDIO
    TITLE "P1Q_t_0810-0819_24"
    INDEX 01 00:37:27
  TRACK 25 AUDIO
    TITLE "P1Q_t_0810-0819_25"
    INDEX 01 00:37:74
  TRACK 26 AUDIO
    TITLE "P1Q_t_0810-0819_26"
    INDEX 01 00:39:20
  TRACK 27 AUDIO
    TITLE "P1Q_t_0810-0819_27"
    INDEX 01 00:39:42
  TRACK 28 AUDIO
    TITLE "P1Q_t_0810-0819_28"
    INDEX 01 00:40:63
  TRACK 29 AUDIO
    TITLE "P1Q_t_0810-0819_29"
    INDEX 01 00:41:07
  TRACK 30 AUDIO
    TITLE "P1Q_t_0810-0819_30"
    INDEX 01 00:45:50
  TRACK 31 AUDIO
    TITLE "P1Q_t_0810-0819_31"
    INDEX 01 00:46:20
  TRACK 32 AUDIO
    TITLE "P1Q_t_0810-0819_32"
    INDEX 01 00:47:51
  TRACK 33 AUDIO
    TITLE "P1Q_t_0810-0819_33"
    INDEX 01 00:47:73
  TRACK 34 AUDIO
    TITLE "P1Q_t_0810-0819_34"
    INDEX 01 00:50:63
  TRACK 35 AUDIO
    TITLE "P1Q_t_0810-0819_35"
    INDEX 01 00:51:08
  TRACK 36 AUDIO
    TITLE "P1Q_t_0810-0819_36"
    INDEX 01 00:56:03
  TRACK 37 AUDIO
    TITLE "P1Q_t_0810-0819_37"
    INDEX 01 00:56:50
  TRACK 38 AUDIO
    TITLE "P1Q_t_0810-0819_38"
    INDEX 01 00:57:75
  TRACK 39 AUDIO
    TITLE "P1Q_t_0810-0819_39"
    INDEX 01 00:58:19
  TRACK 40 AUDIO
    TITLE "P1Q_t_0810-0819_40"
    INDEX 01 01:01:37
  TRACK 41 AUDIO
    TITLE "P1Q_t_0810-0819_41"
    INDEX 01 01:01:59
  TRACK 42 AUDIO
    TITLE "P1Q_t_0810-0819_42"
    INDEX 01 01:06:60
  TRACK 43 AUDIO
    TITLE "P1Q_t_0810-0819_43"
    INDEX 01 01:07:30
  TRACK 44 AUDIO
    TITLE "P1Q_t_0810-0819_44"
    INDEX 01 01:08:55
  TRACK 45 AUDIO
    TITLE "P1Q_t_0810-0819_45"
    INDEX 01 01:09:02
  TRACK 46 AUDIO
    TITLE "P1Q_t_0810-0819_46"
    INDEX 01 01:12:29
  TRACK 47 AUDIO
    TITLE "P1Q_t_0810-0819_47"
    INDEX 01 01:12:51
  TRACK 48 AUDIO
    TITLE "P1Q_t_0810-0819_48"
    INDEX 01 01:17:29
  TRACK 49 AUDIO
    TITLE "P1Q_t_0810-0819_49"
    INDEX 01 01:18:01
  TRACK 50 AUDIO
    TITLE "P1Q_t_0810-0819_50"
    INDEX 01 01:19:10
  TRACK 51 AUDIO
    TITLE "P1Q_t_0810-0819_51"
    INDEX 01 01:19:33
  TRACK 52 AUDIO
    TITLE "P1Q_t_0810-0819_52"
    INDEX 01 01:23:06
  TRACK 53 AUDIO
    TITLE "P1Q_t_0810-0819_53"
    INDEX 01 01:23:25
  TRACK 54 AUDIO
    TITLE "P1Q_t_0810-0819_54"
    INDEX 01 01:27:54
  TRACK 55 AUDIO
    TITLE "P1Q_t_0810-0819_55"
    INDEX 01 01:28:26
  TRACK 56 AUDIO
    TITLE "P1Q_t_0810-0819_56"
    INDEX 01 01:29:32
  TRACK 57 AUDIO
    TITLE "P1Q_t_0810-0819_57"
    INDEX 01 01:29:53
  TRACK 58 AUDIO
    TITLE "P1Q_t_0810-0819_58"
    INDEX 01 01:32:34
  TRACK 59 AUDIO
    TITLE "P1Q_t_0810-0819_59"
    INDEX 01 01:32:54
  TRACK 60 AUDIO
    TITLE "P1Q_t_0810-0819_60"
    INDEX 01 01:38:23
